# WaveFront *.obj file (generated by Autodesk ATF)

mtllib arrow_r.mtl

g Body8

v -24.667913 15.876354 0.000000
v -32.873532 15.876354 0.000000
v -32.873532 15.876354 4.000000
v -24.667913 15.876354 4.000000
v -24.667913 15.231258 0.000000
v -24.667913 15.231258 4.000000
v -31.902203 15.231258 0.000000
v -31.902203 15.231258 4.000000
v -29.214303 13.480283 0.000000
v -29.214303 13.480283 4.000000
v -29.582930 12.942703 0.000000
v -29.582930 12.942703 4.000000
v -33.061639 15.253130 0.000000
v -33.061639 15.253130 4.000000
v -32.935246 15.870706 0.000000
v -32.994910 15.853950 0.000000
v -33.050541 15.826643 0.000000
v -33.100291 15.789692 0.000000
v -33.142509 15.744324 0.000000
v -33.175790 15.692047 0.000000
v -33.199029 15.634598 0.000000
v -33.211454 15.573884 0.000000
v -33.212653 15.511924 0.000000
v -33.202586 15.450776 0.000000
v -33.181587 15.392470 0.000000
v -33.150353 15.338945 0.000000
v -33.109923 15.291978 0.000000
v -33.109923 15.291978 4.000000
v -33.150353 15.338945 4.000000
v -33.181587 15.392470 4.000000
v -33.202586 15.450776 4.000000
v -33.212653 15.511924 4.000000
v -33.211454 15.573884 4.000000
v -33.199029 15.634598 4.000000
v -33.175790 15.692047 4.000000
v -33.142509 15.744324 4.000000
v -33.100291 15.789692 4.000000
v -33.050541 15.826643 4.000000
v -32.994910 15.853950 4.000000
v -32.935246 15.870706 4.000000
v -32.935246 15.870706 1.333333
v -32.935246 15.870706 2.666667
v -32.994910 15.853950 1.333333
v -32.994910 15.853950 2.666667
v -33.050541 15.826643 1.333333
v -33.050541 15.826643 2.666667
v -33.100291 15.789692 1.333333
v -33.100291 15.789692 2.666667
v -33.142509 15.744324 1.333333
v -33.142509 15.744324 2.666667
v -33.175790 15.692047 1.333333
v -33.175790 15.692047 2.666667
v -33.199029 15.634598 1.333333
v -33.199029 15.634598 2.666667
v -33.211454 15.573884 1.333333
v -33.211454 15.573884 2.666667
v -33.212653 15.511924 1.333333
v -33.212653 15.511924 2.666667
v -33.202586 15.450776 1.333333
v -33.202586 15.450776 2.666667
v -33.181587 15.392470 1.333333
v -33.181587 15.392470 2.666667
v -33.150353 15.338945 1.333333
v -33.150353 15.338945 2.666667
v -33.109923 15.291978 1.333333
v -33.109923 15.291978 2.666667
vt 0.000000 0.000000 0.000000
vt 0.820562 0.000000 0.000000
vt 0.000000 0.400000 0.000000
vt 0.820562 0.400000 0.000000
vt 0.000000 0.000000 0.000000
vt 0.064510 0.000000 0.000000
vt 0.000000 0.400000 0.000000
vt 0.064510 0.400000 0.000000
vt 0.000000 0.000000 0.000000
vt 0.723429 0.000000 0.000000
vt 0.000000 0.400000 0.000000
vt 0.723429 0.400000 0.000000
vt 0.000000 0.000000 0.000000
vt 0.320791 0.000000 0.000000
vt 0.000000 0.400000 0.000000
vt 0.320791 0.400000 0.000000
vt 0.000000 0.000000 0.000000
vt 0.065183 0.000000 0.000000
vt 0.000000 0.400000 0.000000
vt 0.065183 0.400000 0.000000
vt 0.000000 0.000000 0.000000
vt 0.417606 0.000000 0.000000
vt 0.000000 0.400000 0.000000
vt 0.417606 0.400000 0.000000
vt -0.000000 0.006206 0.000000
vt -0.133333 0.006206 0.000000
vt -0.000000 0.000000 0.000000
vt -0.266667 0.006206 0.000000
vt -0.400000 0.000000 0.000000
vt -0.400000 0.006206 0.000000
vt -0.400000 0.012412 0.000000
vt -0.266667 0.012412 0.000000
vt -0.400000 0.018617 0.000000
vt -0.266667 0.018617 0.000000
vt -0.400000 0.024823 0.000000
vt -0.266667 0.024823 0.000000
vt -0.400000 0.031029 0.000000
vt -0.266667 0.031029 0.000000
vt -0.400000 0.037235 0.000000
vt -0.266667 0.037235 0.000000
vt -0.400000 0.043441 0.000000
vt -0.266667 0.043441 0.000000
vt -0.400000 0.049646 0.000000
vt -0.266667 0.049646 0.000000
vt -0.400000 0.055852 0.000000
vt -0.266667 0.055852 0.000000
vt -0.400000 0.062058 0.000000
vt -0.266667 0.062058 0.000000
vt -0.400000 0.068264 0.000000
vt -0.266667 0.068264 0.000000
vt -0.400000 0.074470 0.000000
vt -0.266667 0.074470 0.000000
vt -0.400000 0.080675 0.000000
vt -0.266667 0.080675 0.000000
vt -0.400000 0.086881 0.000000
vt -0.133333 0.080675 0.000000
vt -0.000000 0.086881 0.000000
vt -0.000000 0.080675 0.000000
vt -0.000000 0.074470 0.000000
vt -0.133333 0.074470 0.000000
vt -0.000000 0.068264 0.000000
vt -0.133333 0.068264 0.000000
vt -0.000000 0.062058 0.000000
vt -0.133333 0.062058 0.000000
vt -0.000000 0.055852 0.000000
vt -0.133333 0.055852 0.000000
vt -0.000000 0.049646 0.000000
vt -0.133333 0.049646 0.000000
vt -0.000000 0.043441 0.000000
vt -0.133333 0.043441 0.000000
vt -0.000000 0.037235 0.000000
vt -0.133333 0.037235 0.000000
vt -0.000000 0.031029 0.000000
vt -0.133333 0.031029 0.000000
vt -0.000000 0.024823 0.000000
vt -0.133333 0.024823 0.000000
vt -0.000000 0.018617 0.000000
vt -0.133333 0.018617 0.000000
vt -0.000000 0.012412 0.000000
vt -0.133333 0.012412 0.000000
vt -0.399452 0.146118 0.000000
vt -0.405419 0.144442 0.000000
vt -0.393281 0.146683 0.000000
vt -0.410982 0.141711 0.000000
vt -0.415957 0.138016 0.000000
vt -0.420179 0.133480 0.000000
vt -0.423507 0.128252 0.000000
vt -0.425831 0.122507 0.000000
vt -0.296148 0.082173 0.000000
vt -0.427073 0.116436 0.000000
vt -0.427193 0.110240 0.000000
vt -0.426186 0.104125 0.000000
vt -0.424086 0.098294 0.000000
vt -0.420963 0.092942 0.000000
vt -0.416920 0.088245 0.000000
vt -0.412092 0.084360 0.000000
vt -0.027358 -0.092925 0.000000
vt -0.064221 -0.146683 0.000000
vt 0.427281 0.082173 0.000000
vt 0.427281 0.146683 0.000000
vt 0.416920 0.088245 0.000000
vt 0.296148 0.082173 0.000000
vt 0.412092 0.084360 0.000000
vt 0.027358 -0.092925 0.000000
vt 0.064221 -0.146683 0.000000
vt 0.420963 0.092942 0.000000
vt 0.424086 0.098294 0.000000
vt 0.426186 0.104125 0.000000
vt 0.427193 0.110240 0.000000
vt 0.427073 0.116436 0.000000
vt 0.425831 0.122507 0.000000
vt 0.393281 0.146683 0.000000
vt 0.423507 0.128252 0.000000
vt 0.420179 0.133480 0.000000
vt 0.415957 0.138016 0.000000
vt 0.410982 0.141711 0.000000
vt 0.405419 0.144442 0.000000
vt 0.399452 0.146118 0.000000
vt -0.427281 0.146683 0.000000
vt -0.427281 0.082173 0.000000
vn 0.000000 0.100000 0.000000
vn 0.000000 0.100000 0.000000
vn 0.000000 0.100000 0.000000
vn 0.000000 0.100000 0.000000
vn 0.100000 0.000000 0.000000
vn 0.100000 0.000000 0.000000
vn 0.100000 0.000000 0.000000
vn 0.100000 0.000000 0.000000
vn 0.000000 -0.100000 0.000000
vn 0.000000 -0.100000 0.000000
vn 0.000000 -0.100000 0.000000
vn 0.000000 -0.100000 0.000000
vn 0.054583 0.083790 0.000000
vn 0.054583 0.083790 0.000000
vn 0.054583 0.083790 0.000000
vn 0.054583 0.083790 0.000000
vn 0.082473 -0.056553 0.000000
vn 0.082473 -0.056553 0.000000
vn 0.082473 -0.056553 0.000000
vn 0.082473 -0.056553 0.000000
vn -0.055325 -0.083301 0.000000
vn -0.055325 -0.083301 0.000000
vn -0.055325 -0.083301 0.000000
vn -0.055325 -0.083301 0.000000
vn -0.018151 0.098339 -0.000000
vn -0.018151 0.098339 -0.000000
vn -0.018151 0.098339 -0.000000
vn -0.018151 0.098339 -0.000000
vn -0.035699 0.093411 -0.000000
vn -0.035699 0.093411 -0.000000
vn -0.052061 0.085379 -0.000000
vn -0.052061 0.085379 -0.000000
vn -0.066694 0.074511 -0.000000
vn -0.066694 0.074511 -0.000000
vn -0.079111 0.061168 -0.000000
vn -0.079111 0.061168 -0.000000
vn -0.088899 0.045792 -0.000000
vn -0.088899 0.045792 -0.000000
vn -0.095734 0.028895 -0.000000
vn -0.095734 0.028895 -0.000000
vn -0.099389 0.011038 -0.000000
vn -0.099389 0.011038 -0.000000
vn -0.099742 -0.007185 0.000000
vn -0.099742 -0.007185 0.000000
vn -0.096781 -0.025170 0.000000
vn -0.096781 -0.025170 0.000000
vn -0.090604 -0.042319 0.000000
vn -0.090604 -0.042319 0.000000
vn -0.081418 -0.058061 0.000000
vn -0.081418 -0.058061 0.000000
vn -0.069527 -0.071875 0.000000
vn -0.069527 -0.071875 0.000000
vn -0.069527 -0.071875 0.000000
vn -0.069527 -0.071875 0.000000
vn -0.081418 -0.058061 0.000000
vn -0.081418 -0.058061 0.000000
vn -0.090604 -0.042319 0.000000
vn -0.090604 -0.042319 0.000000
vn -0.096781 -0.025170 0.000000
vn -0.096781 -0.025170 0.000000
vn -0.099742 -0.007185 0.000000
vn -0.099742 -0.007185 0.000000
vn -0.099389 0.011038 -0.000000
vn -0.099389 0.011038 -0.000000
vn -0.095734 0.028895 -0.000000
vn -0.095734 0.028895 -0.000000
vn -0.088899 0.045792 -0.000000
vn -0.088899 0.045792 -0.000000
vn -0.079111 0.061168 -0.000000
vn -0.079111 0.061168 -0.000000
vn -0.066694 0.074511 -0.000000
vn -0.066694 0.074511 -0.000000
vn -0.052061 0.085379 -0.000000
vn -0.052061 0.085379 -0.000000
vn -0.035699 0.093411 -0.000000
vn -0.035699 0.093411 -0.000000
vn 0.000000 0.000000 0.100000
vn 0.000000 0.000000 0.100000
vn 0.000000 0.000000 0.100000
vn 0.000000 0.000000 0.100000
vn 0.000000 0.000000 0.100000
vn 0.000000 0.000000 0.100000
vn 0.000000 0.000000 0.100000
vn 0.000000 0.000000 0.100000
vn 0.000000 0.000000 0.100000
vn 0.000000 0.000000 0.100000
vn 0.000000 0.000000 0.100000
vn 0.000000 0.000000 0.100000
vn 0.000000 0.000000 0.100000
vn 0.000000 0.000000 0.100000
vn 0.000000 0.000000 0.100000
vn 0.000000 0.000000 0.100000
vn 0.000000 0.000000 0.100000
vn 0.000000 0.000000 0.100000
vn 0.000000 0.000000 0.100000
vn 0.000000 0.000000 0.100000
vn -0.000000 0.000000 -0.100000
vn -0.000000 0.000000 -0.100000
vn -0.000000 0.000000 -0.100000
vn -0.000000 0.000000 -0.100000
vn -0.000000 0.000000 -0.100000
vn -0.000000 0.000000 -0.100000
vn -0.000000 0.000000 -0.100000
vn -0.000000 0.000000 -0.100000
vn -0.000000 0.000000 -0.100000
vn -0.000000 0.000000 -0.100000
vn -0.000000 0.000000 -0.100000
vn -0.000000 0.000000 -0.100000
vn -0.000000 0.000000 -0.100000
vn -0.000000 0.000000 -0.100000
vn -0.000000 0.000000 -0.100000
vn -0.000000 0.000000 -0.100000
vn -0.000000 0.000000 -0.100000
vn -0.000000 0.000000 -0.100000
vn -0.000000 0.000000 -0.100000
vn -0.000000 0.000000 -0.100000
usemtl Steel_-_Satin
f 1/1/1 2/2/2 4/3/3
f 4/3/3 2/2/2 3/4/4
f 5/5/5 1/6/6 6/7/7
f 6/7/7 1/6/6 4/8/8
f 7/9/9 5/10/10 8/11/11
f 8/11/11 5/10/10 6/12/12
f 9/13/13 7/14/14 10/15/15
f 10/15/15 7/14/14 8/16/16
f 11/17/17 9/18/18 12/19/19
f 12/19/19 9/18/18 10/20/20
f 13/21/21 11/22/22 14/23/23
f 14/23/23 11/22/22 12/24/24
f 15/25/25 41/26/26 2/27/2
f 2/27/2 41/26/26 42/28/27
f 2/27/2 42/28/27 3/29/4
f 3/29/4 42/28/27 40/30/28
f 40/30/28 42/28/27 39/31/29
f 39/31/29 42/28/27 44/32/30
f 39/31/29 44/32/30 38/33/31
f 38/33/31 44/32/30 46/34/32
f 38/33/31 46/34/32 37/35/33
f 37/35/33 46/34/32 48/36/34
f 37/35/33 48/36/34 36/37/35
f 36/37/35 48/36/34 50/38/36
f 36/37/35 50/38/36 35/39/37
f 35/39/37 50/38/36 52/40/38
f 35/39/37 52/40/38 34/41/39
f 34/41/39 52/40/38 54/42/40
f 34/41/39 54/42/40 33/43/41
f 33/43/41 54/42/40 56/44/42
f 33/43/41 56/44/42 32/45/43
f 32/45/43 56/44/42 58/46/44
f 32/45/43 58/46/44 31/47/45
f 31/47/45 58/46/44 60/48/46
f 31/47/45 60/48/46 30/49/47
f 30/49/47 60/48/46 62/50/48
f 30/49/47 62/50/48 29/51/49
f 29/51/49 62/50/48 64/52/50
f 29/51/49 64/52/50 28/53/51
f 28/53/51 64/52/50 66/54/52
f 28/53/51 66/54/52 14/55/23
f 14/55/23 66/54/52 65/56/53
f 14/55/23 65/56/53 13/57/21
f 13/57/21 65/56/53 27/58/54
f 27/58/54 65/56/53 26/59/55
f 26/59/55 65/56/53 63/60/56
f 26/59/55 63/60/56 25/61/57
f 25/61/57 63/60/56 61/62/58
f 25/61/57 61/62/58 24/63/59
f 24/63/59 61/62/58 59/64/60
f 24/63/59 59/64/60 23/65/61
f 23/65/61 59/64/60 57/66/62
f 23/65/61 57/66/62 22/67/63
f 22/67/63 57/66/62 55/68/64
f 22/67/63 55/68/64 21/69/65
f 21/69/65 55/68/64 53/70/66
f 21/69/65 53/70/66 20/71/67
f 20/71/67 53/70/66 51/72/68
f 20/71/67 51/72/68 19/73/69
f 19/73/69 51/72/68 49/74/70
f 19/73/69 49/74/70 18/75/71
f 18/75/71 49/74/70 47/76/72
f 18/75/71 47/76/72 17/77/73
f 17/77/73 47/76/72 45/78/74
f 17/77/73 45/78/74 16/79/75
f 16/79/75 45/78/74 43/80/76
f 16/79/75 43/80/76 15/25/25
f 15/25/25 43/80/76 41/26/26
f 44/32/30 42/28/27 41/26/26
f 44/32/30 41/26/26 43/80/76
f 46/34/32 44/32/30 43/80/76
f 46/34/32 43/80/76 45/78/74
f 48/36/34 46/34/32 45/78/74
f 48/36/34 45/78/74 47/76/72
f 50/38/36 48/36/34 47/76/72
f 50/38/36 47/76/72 49/74/70
f 52/40/38 50/38/36 49/74/70
f 52/40/38 49/74/70 51/72/68
f 54/42/40 52/40/38 51/72/68
f 54/42/40 51/72/68 53/70/66
f 56/44/42 54/42/40 53/70/66
f 56/44/42 53/70/66 55/68/64
f 58/46/44 56/44/42 55/68/64
f 58/46/44 55/68/64 57/66/62
f 60/48/46 58/46/44 57/66/62
f 60/48/46 57/66/62 59/64/60
f 62/50/48 60/48/46 59/64/60
f 62/50/48 59/64/60 61/62/58
f 64/52/50 62/50/48 61/62/58
f 64/52/50 61/62/58 63/60/56
f 66/54/52 64/52/50 63/60/56
f 66/54/52 63/60/56 65/56/53
f 40/81/77 39/82/78 3/83/79
f 3/83/79 39/82/78 38/84/80
f 3/83/79 38/84/80 37/85/81
f 37/85/81 36/86/82 3/83/79
f 3/83/79 36/86/82 35/87/83
f 3/83/79 35/87/83 34/88/84
f 3/83/79 34/88/84 8/89/85
f 8/89/85 34/88/84 33/90/86
f 8/89/85 33/90/86 32/91/87
f 32/91/87 31/92/88 8/89/85
f 8/89/85 31/92/88 30/93/89
f 8/89/85 30/93/89 29/94/90
f 29/94/90 28/95/91 8/89/85
f 8/89/85 28/95/91 14/96/92
f 8/89/85 14/96/92 10/97/93
f 10/97/93 14/96/92 12/98/94
f 6/99/95 4/100/96 8/89/85
f 8/89/85 4/100/96 3/83/79
f 27/101/97 7/102/98 13/103/99
f 13/103/99 7/102/98 9/104/100
f 13/103/99 9/104/100 11/105/101
f 27/101/97 26/106/102 7/102/98
f 7/102/98 26/106/102 25/107/103
f 7/102/98 25/107/103 24/108/104
f 24/108/104 23/109/105 7/102/98
f 7/102/98 23/109/105 22/110/106
f 7/102/98 22/110/106 21/111/107
f 7/102/98 21/111/107 2/112/108
f 2/112/108 21/111/107 20/113/109
f 2/112/108 20/113/109 19/114/110
f 19/114/110 18/115/111 2/112/108
f 2/112/108 18/115/111 17/116/112
f 2/112/108 17/116/112 16/117/113
f 16/117/113 15/118/114 2/112/108
f 2/112/108 1/119/115 7/102/98
f 7/102/98 1/119/115 5/120/116
# 66 vertices
# 120 texture params
# 116 normals
# 128 facets

# 1 groups
