# WaveFront *.obj file (generated by Autodesk ATF)

mtllib M_r.mtl

g Body11

v -14.805824 -6.249921 0.000000
v -10.968499 1.854122 0.000000
v -10.968499 1.854122 4.000000
v -14.805824 -6.249921 4.000000
v -16.000000 -6.249921 0.000000
v -16.000000 -6.249921 4.000000
v -19.805333 1.854122 0.000000
v -19.805333 1.854122 4.000000
v -19.805333 -10.069830 0.000000
v -19.805333 -10.069830 4.000000
v -21.615959 -10.069830 0.000000
v -21.615959 -10.069830 4.000000
v -21.615959 4.000000 0.000000
v -21.615959 4.000000 4.000000
v -19.000000 4.000000 0.000000
v -19.000000 4.000000 4.000000
v -15.265776 -3.769903 0.000000
v -15.265776 -3.769903 4.000000
v -11.697578 4.000000 0.000000
v -11.697578 4.000000 4.000000
v -9.000000 4.000000 0.000000
v -9.000000 4.000000 4.000000
v -9.000000 -10.069830 0.000000
v -9.000000 -10.069830 4.000000
v -10.968499 -10.069830 0.000000
v -10.968499 -10.069830 4.000000
vt 0.000000 0.000000 0.000000
vt 0.896664 0.000000 0.000000
vt 0.000000 0.400000 0.000000
vt 0.896664 0.400000 0.000000
vt 0.000000 0.000000 0.000000
vt 0.119418 0.000000 0.000000
vt 0.000000 0.400000 0.000000
vt 0.119418 0.400000 0.000000
vt 0.000000 0.000000 0.000000
vt 0.895299 0.000000 0.000000
vt 0.000000 0.400000 0.000000
vt 0.895299 0.400000 0.000000
vt 0.000000 0.000000 0.000000
vt 1.192395 0.000000 0.000000
vt 0.000000 0.400000 0.000000
vt 1.192395 0.400000 0.000000
vt 0.000000 0.000000 0.000000
vt 0.181063 0.000000 0.000000
vt 0.000000 0.400000 0.000000
vt 0.181063 0.400000 0.000000
vt -0.000000 0.000000 0.000000
vt 1.406983 0.000000 0.000000
vt -0.000000 0.400000 0.000000
vt 1.406983 0.400000 0.000000
vt -0.000000 0.000000 0.000000
vt 0.261596 0.000000 0.000000
vt -0.000000 0.400000 0.000000
vt 0.261596 0.400000 0.000000
vt 0.000000 0.000000 0.000000
vt 0.862066 0.000000 0.000000
vt 0.000000 0.400000 0.000000
vt 0.862066 0.400000 0.000000
vt -0.000000 0.000000 0.000000
vt 0.855005 0.000000 0.000000
vt -0.000000 0.400000 0.000000
vt 0.855005 0.400000 0.000000
vt -0.000000 0.000000 0.000000
vt 0.269758 0.000000 0.000000
vt -0.000000 0.400000 0.000000
vt 0.269758 0.400000 0.000000
vt 0.000000 0.000000 0.000000
vt 1.406983 0.000000 0.000000
vt 0.000000 0.400000 0.000000
vt 1.406983 0.400000 0.000000
vt 0.000000 0.000000 0.000000
vt 0.196850 0.000000 0.000000
vt 0.000000 0.400000 0.000000
vt 0.196850 0.400000 0.000000
vt -0.000000 0.000000 0.000000
vt 1.192395 0.000000 0.000000
vt -0.000000 0.400000 0.000000
vt 1.192395 0.400000 0.000000
vt 0.433948 -0.703492 0.000000
vt 0.630798 -0.703492 0.000000
vt 0.433948 0.488904 0.000000
vt 0.630798 0.703492 0.000000
vt 0.361040 0.703492 0.000000
vt 0.004220 -0.073499 0.000000
vt 0.050216 -0.321501 0.000000
vt -0.069202 -0.321501 0.000000
vt -0.449735 0.488904 0.000000
vt -0.369202 0.703492 0.000000
vt -0.630798 0.703492 0.000000
vt -0.630798 -0.703492 0.000000
vt -0.449735 -0.703492 0.000000
vt -0.433948 -0.703492 0.000000
vt -0.433948 0.488904 0.000000
vt -0.630798 -0.703492 0.000000
vt -0.630798 0.703492 0.000000
vt -0.361040 0.703492 0.000000
vt -0.004220 -0.073499 0.000000
vt -0.050216 -0.321501 0.000000
vt 0.069202 -0.321501 0.000000
vt 0.449735 0.488904 0.000000
vt 0.369202 0.703492 0.000000
vt 0.630798 0.703492 0.000000
vt 0.630798 -0.703492 0.000000
vt 0.449735 -0.703492 0.000000
vn 0.090380 -0.042796 0.000000
vn 0.090380 -0.042796 0.000000
vn 0.090380 -0.042796 0.000000
vn 0.090380 -0.042796 0.000000
vn 0.000000 -0.100000 0.000000
vn 0.000000 -0.100000 0.000000
vn 0.000000 -0.100000 0.000000
vn 0.000000 -0.100000 0.000000
vn -0.090518 -0.042503 0.000000
vn -0.090518 -0.042503 0.000000
vn -0.090518 -0.042503 0.000000
vn -0.090518 -0.042503 0.000000
vn 0.100000 0.000000 0.000000
vn 0.100000 0.000000 0.000000
vn 0.100000 0.000000 0.000000
vn 0.100000 0.000000 0.000000
vn 0.000000 -0.100000 0.000000
vn 0.000000 -0.100000 0.000000
vn 0.000000 -0.100000 0.000000
vn 0.000000 -0.100000 0.000000
vn -0.100000 0.000000 0.000000
vn -0.100000 0.000000 0.000000
vn -0.100000 0.000000 0.000000
vn -0.100000 0.000000 0.000000
vn 0.000000 0.100000 0.000000
vn 0.000000 0.100000 0.000000
vn 0.000000 0.100000 0.000000
vn 0.000000 0.100000 0.000000
vn 0.090131 0.043317 0.000000
vn 0.090131 0.043317 0.000000
vn 0.090131 0.043317 0.000000
vn 0.090131 0.043317 0.000000
vn -0.090875 0.041733 0.000000
vn -0.090875 0.041733 0.000000
vn -0.090875 0.041733 0.000000
vn -0.090875 0.041733 0.000000
vn 0.000000 0.100000 0.000000
vn 0.000000 0.100000 0.000000
vn 0.000000 0.100000 0.000000
vn 0.000000 0.100000 0.000000
vn 0.100000 0.000000 0.000000
vn 0.100000 0.000000 0.000000
vn 0.100000 0.000000 0.000000
vn 0.100000 0.000000 0.000000
vn 0.000000 -0.100000 0.000000
vn 0.000000 -0.100000 0.000000
vn 0.000000 -0.100000 0.000000
vn 0.000000 -0.100000 0.000000
vn -0.100000 0.000000 0.000000
vn -0.100000 0.000000 0.000000
vn -0.100000 0.000000 0.000000
vn -0.100000 0.000000 0.000000
vn 0.000000 0.000000 0.100000
vn 0.000000 0.000000 0.100000
vn 0.000000 0.000000 0.100000
vn 0.000000 0.000000 0.100000
vn 0.000000 0.000000 0.100000
vn 0.000000 0.000000 0.100000
vn 0.000000 0.000000 0.100000
vn 0.000000 0.000000 0.100000
vn 0.000000 0.000000 0.100000
vn 0.000000 0.000000 0.100000
vn 0.000000 0.000000 0.100000
vn 0.000000 0.000000 0.100000
vn 0.000000 0.000000 0.100000
vn -0.000000 0.000000 -0.100000
vn -0.000000 0.000000 -0.100000
vn -0.000000 0.000000 -0.100000
vn -0.000000 0.000000 -0.100000
vn -0.000000 0.000000 -0.100000
vn -0.000000 0.000000 -0.100000
vn -0.000000 0.000000 -0.100000
vn -0.000000 0.000000 -0.100000
vn -0.000000 0.000000 -0.100000
vn -0.000000 0.000000 -0.100000
vn -0.000000 0.000000 -0.100000
vn -0.000000 0.000000 -0.100000
vn -0.000000 0.000000 -0.100000
usemtl Steel_-_Satin
f 1/1/1 2/2/2 4/3/3
f 4/3/3 2/2/2 3/4/4
f 5/5/5 1/6/6 6/7/7
f 6/7/7 1/6/6 4/8/8
f 7/9/9 5/10/10 8/11/11
f 8/11/11 5/10/10 6/12/12
f 9/13/13 7/14/14 10/15/15
f 10/15/15 7/14/14 8/16/16
f 11/17/17 9/18/18 12/19/19
f 12/19/19 9/18/18 10/20/20
f 13/21/21 11/22/22 14/23/23
f 14/23/23 11/22/22 12/24/24
f 15/25/25 13/26/26 16/27/27
f 16/27/27 13/26/26 14/28/28
f 17/29/29 15/30/30 18/31/31
f 18/31/31 15/30/30 16/32/32
f 19/33/33 17/34/34 20/35/35
f 20/35/35 17/34/34 18/36/36
f 21/37/37 19/38/38 22/39/39
f 22/39/39 19/38/38 20/40/40
f 23/41/41 21/42/42 24/43/43
f 24/43/43 21/42/42 22/44/44
f 25/45/45 23/46/46 26/47/47
f 26/47/47 23/46/46 24/48/48
f 2/49/49 25/50/50 3/51/51
f 3/51/51 25/50/50 26/52/52
f 26/53/53 24/54/54 3/55/55
f 3/55/55 24/54/54 22/56/56
f 3/55/55 22/56/56 20/57/57
f 20/57/57 18/58/58 3/55/55
f 3/55/55 18/58/58 4/59/59
f 4/59/59 18/58/58 6/60/60
f 6/60/60 18/58/58 8/61/61
f 8/61/61 18/58/58 16/62/62
f 8/61/61 16/62/62 14/63/63
f 14/63/63 12/64/64 8/61/61
f 8/61/61 12/64/64 10/65/65
f 25/66/66 2/67/67 23/68/68
f 23/68/68 2/67/67 21/69/69
f 21/69/69 2/67/67 19/70/70
f 19/70/70 2/67/67 17/71/71
f 17/71/71 2/67/67 1/72/72
f 17/71/71 1/72/72 5/73/73
f 5/73/73 7/74/74 17/71/71
f 17/71/71 7/74/74 15/75/75
f 15/75/75 7/74/74 13/76/76
f 13/76/76 7/74/74 11/77/77
f 11/77/77 7/74/74 9/78/78
# 26 vertices
# 78 texture params
# 78 normals
# 48 facets

# 1 groups
